PathFileType	4	(X/Y/Z)	OpenSim_Sub08_EMGStiffKnee_Gyro.trc
DataRate	CameraRate	NumFrames	NumMarkers	Units	OrigDataRate	OrigDataStartFrame	OrigNumFrames
100	100	23	8	m	100	3939	6301
Frame#	Time	torso_imu_offset_imu	pelvis_imu_offset_imu	tibia_r_imu_offset_imu	femur_r_imu_offset_imu	tibia_l_imu_offset_imu	femur_l_imu_offset_imu	toes_r_imu_offset_imu	toes_l_imu_offset_imu
				X1	Y1	Z1	X2	Y2	Z2	X3	Y3	Z3	X4	Y4	Z4	X5	Y5	Z5	X6	Y6	Z6	X7	Y7	Z7	X8		Y8	Z8	

3939	39.38000000	0.50193150	-0.24958578	0.11891105	0.04228602	-0.11384575	-0.14567577	0.44938814	-0.40674352	-0.75571151	-0.09377207	-0.41824388	-0.74114628	2.14209637	-0.25757926	-0.87827828	0.84259614	0.19338412	-2.73784267	0.25680259	0.03435385	-0.30649773	-2.57085440	3.89010043	2.38488842
3940	39.39000000	0.51352435	-0.21909750	0.07113328	0.09649759	-0.09472500	-0.23664267	-0.20369399	-0.41779596	-0.64030526	-0.51253016	-0.47216158	-0.70328413	2.10440552	-0.21217007	-1.60318069	0.70252168	0.11905727	-2.61878629	0.34866961	0.10342362	-0.37986710	-2.21531690	3.99434555	1.70261889
3941	39.40000000	0.51934299	-0.19874912	0.04121567	0.14728284	-0.04872098	-0.29154180	-0.74333807	-0.42398124	-0.52989633	-0.75727333	-0.52302465	-0.67948321	1.81214863	-0.33974035	-2.01542820	0.57130948	0.04805588	-2.47313265	0.32762199	0.12682662	-0.39597281	-1.06878605	4.14508657	0.76645169
3942	39.41000000	0.51790560	-0.20832000	-0.00173419	0.19214651	0.00915848	-0.31889618	-1.28299856	-0.43628799	-0.52081344	-0.78056144	-0.51642308	-0.65838967	1.48364005	-0.46890349	-2.22499931	0.47209164	-0.00942062	-2.34832885	0.32619769	0.11968303	-0.38093703	0.60430675	4.30594671	-0.21131127
3943	39.42000000	0.50542224	-0.21316844	-0.05016794	0.22133359	0.08482075	-0.33677983	-1.57911764	-0.43320159	-0.59361875	-0.65979531	-0.42769679	-0.63053054	1.41331639	-0.46503028	-2.48539276	0.30562432	-0.02278139	-2.26891310	0.24243096	0.10272256	-0.34330753	1.62530869	4.38538970	-1.10000469
3944	39.43000000	0.47613626	-0.23282085	-0.09438828	0.21347588	0.14566247	-0.35525160	-1.51940315	-0.40041542	-0.68395724	-0.53205542	-0.31946112	-0.56952599	1.35433684	-0.42823356	-2.86810788	0.06227670	-0.00278091	-2.22852681	0.16295145	0.06682463	-0.31605616	1.97910861	4.63000634	-1.85564539
3945	39.44000000	0.43850371	-0.25523720	-0.13118288	0.17712980	0.18774236	-0.36780424	-1.14626541	-0.34625062	-0.74175092	-0.47217198	-0.26406469	-0.48315623	1.01720533	-0.31440624	-3.32055824	-0.26259334	0.02372242	-2.19613928	0.17705737	0.08822525	-0.29935187	1.76763867	4.85236683	-2.46740948
3946	39.45000000	0.41053382	-0.28163982	-0.16097238	0.13481895	0.23583025	-0.37111462	-0.65720380	-0.30605311	-0.77177027	-0.47608139	-0.27516891	-0.42797926	0.38730602	-0.20471966	-3.82219491	-0.66180090	0.04434551	-2.16114359	0.16681159	0.06655487	-0.28979194	1.07758493	4.92832999	-2.96611159
3947	39.46000000	0.37633266	-0.31364536	-0.16594381	0.07956035	0.27580768	-0.36472947	-0.25807776	-0.29925760	-0.82867978	-0.45042992	-0.30350263	-0.43296185	-0.46249568	-0.13666821	-4.36529225	-1.09073572	0.08064475	-2.08998735	0.12355093	0.05747231	-0.26979512	0.44181613	4.97896626	-3.32306145
3948	39.47000000	0.35162899	-0.34099651	-0.18237975	0.04500405	0.27905577	-0.35038217	0.06336399	-0.27652085	-0.88782759	-0.34520803	-0.30020763	-0.46693620	-1.39397729	-0.03300265	-4.83893468	-1.44856462	0.13173965	-2.00016061	0.14617093	0.03988212	-0.28308817	0.07624663	5.03736539	-3.57252138
3949	39.48000000	0.31075262	-0.36459102	-0.19381015	0.05357100	0.25814672	-0.34246680	0.17793858	-0.27485829	-0.89126569	-0.25339394	-0.29165990	-0.49540354	-2.22296035	0.15206415	-5.17535010	-1.66425924	0.20735536	-1.87470390	0.22767150	0.08749744	-0.26171580	0.02528365	5.26842308	-3.71567337
3950	39.49000000	0.27789542	-0.37138269	-0.20464913	0.06076302	0.23167701	-0.32963650	0.06379975	-0.27659904	-0.84467999	-0.19391022	-0.27501369	-0.52217667	-2.76080694	0.37150395	-5.43386904	-1.71159006	0.29922992	-1.71487746	0.12402058	0.05376391	-0.20742014	0.07875293	5.69323093	-3.70462732
3951	39.50000000	0.25209312	-0.36335511	-0.22385679	0.05471336	0.20589683	-0.31749699	-0.23480961	-0.28239631	-0.80549283	-0.16055632	-0.24481134	-0.55818368	-2.77199948	0.53237591	-5.72173342	-1.56160386	0.33598780	-1.49226621	0.10714593	0.04791090	-0.18322658	0.10729309	6.13384910	-3.44175237
3952	39.51000000	0.22421684	-0.34756022	-0.21992552	0.02401572	0.16894135	-0.30945334	-0.47353805	-0.31251925	-0.80150934	-0.20118840	-0.20838688	-0.59024212	-2.20776533	0.60913439	-6.03422348	-1.25784976	0.24798602	-1.26000846	0.12799560	0.05409029	-0.16970218	0.24408510	6.33477704	-2.95684281
3953	39.52000000	0.19780591	-0.32881921	-0.21652991	-0.01702415	0.12424438	-0.30384170	-0.64715928	-0.26771556	-0.81043072	-0.29366701	-0.19052408	-0.60313993	-1.25338764	0.71991203	-6.24588845	-0.88626656	0.07956067	-0.94760390	0.11718430	0.07510538	-0.16735577	0.65242433	6.21935733	-2.37934236
3954	39.53000000	0.17757545	-0.32568050	-0.19530935	-0.05265263	0.06780509	-0.30550861	-0.62043561	-0.17401465	-0.83209577	-0.39236759	-0.19178342	-0.59314284	0.09231814	0.89615347	-6.23257889	-0.59995152	-0.03266824	-0.55406200	0.06174686	0.04348270	-0.18301520	1.18734439	5.91183701	-1.77375893
3955	39.54000000	0.14894268	-0.29181794	-0.16447847	-0.08050559	-0.00308014	-0.30109205	-0.42893940	-0.13814197	-0.83700235	-0.44213164	-0.22013410	-0.57724077	1.48276605	1.00737090	-6.12231689	-0.43701026	-0.06762513	-0.09971953	0.11494115	0.04555263	-0.21775378	1.13002439	5.67096833	-1.04324523
3956	39.55000000	0.11971970	-0.29071100	-0.16282247	-0.11702637	-0.08731399	-0.30306033	-0.22675877	-0.10225430	-0.80034194	-0.46621360	-0.24478897	-0.57474535	2.39698434	0.96473042	-6.22169704	-0.30942434	-0.10370698	0.32764467	0.13390060	0.01490905	-0.21285371	0.64679005	5.70355576	-0.20921991
3957	39.56000000	0.09641492	-0.28807063	-0.13036776	-0.16886784	-0.13141748	-0.30360255	-0.04959323	-0.07649528	-0.79266942	-0.47697292	-0.24613491	-0.57032685	2.77734019	0.73625475	-6.39566668	-0.18799291	-0.14915314	0.62784735	0.12028501	-0.04615903	-0.19734743	0.38371813	6.14037836	0.53692393
3958	39.57000000	0.08070099	-0.27581729	-0.10888727	-0.23676671	-0.11338530	-0.30301901	0.07382425	-0.08529772	-0.84601097	-0.47127521	-0.22400373	-0.58331309	2.52766741	0.41739357	-6.33697882	-0.08936921	-0.18369631	0.81464983	0.06450492	-0.04133308	-0.14668022	0.50864230	6.46750289	0.99902665
3959	39.58000000	0.07032918	-0.25077897	-0.11695335	-0.29523107	-0.09564376	-0.29751791	0.00397633	-0.06077834	-0.88750171	-0.48190870	-0.19248665	-0.58688477	1.72811706	0.41318839	-6.11395554	0.07776732	-0.19405236	1.05450222	-0.02608985	-0.06138327	-0.13365212	0.80043231	6.51720793	1.10926401
3960	39.59000000	0.07222933	-0.21696138	-0.09519414	-0.34259937	-0.08932499	-0.28668884	-0.15805463	-0.06307019	-0.87194261	-0.52513633	-0.15276247	-0.59244711	0.68896538	0.56727168	-6.02059898	0.36143723	-0.19144297	1.37674481	-0.00036074	-0.08527458	-0.15681970	0.94645249	6.27928773	0.91832262
3961	39.60000000	0.09097552	-0.16576159	-0.08319068	-0.39332302	-0.08929226	-0.27354544	-0.34675172	-0.08091592	-0.82465862	-0.58985086	-0.11628283	-0.61151078	-0.38402628	0.45970943	-5.98854402	0.53315475	-0.26574660	1.64071747	0.01452412	-0.09601834	-0.17840170	0.56211806	5.77007888	0.49678980
